<?xml version="1.0" encoding="UTF-8"?>
<svg version="1.1" xmlns="http://www.w3.org/2000/svg" width="1700" height="2200">
<path d="M0 0 C561 0 1122 0 1700 0 C1700 726 1700 1452 1700 2200 C1139 2200 578 2200 0 2200 C0 1474 0 748 0 0 Z " fill="#FEFEFE" transform="translate(0,0)"/>
<path d="M0 0 C0.92748047 -0.00773438 1.85496094 -0.01546875 2.81054688 -0.0234375 C3.70451172 -0.02085937 4.59847656 -0.01828125 5.51953125 -0.015625 C6.32108643 -0.01336914 7.1226416 -0.01111328 7.94848633 -0.00878906 C10.4505809 0.28040734 12.05860642 0.91742357 14.1875 2.25 C15.45822078 4.79144155 15.3470029 6.6116945 15.39282227 9.45895386 C15.41276245 10.57673595 15.43270264 11.69451805 15.45324707 12.84617233 C15.47832336 14.71451674 15.47832336 14.71451674 15.50390625 16.62060547 C15.52471596 17.96019464 15.54575988 19.29978018 15.5670166 20.63936234 C15.62416786 24.37540454 15.67326044 28.11151405 15.71992874 31.8477006 C15.75022846 34.2603794 15.78210818 36.67303369 15.81417847 39.08568954 C16.22429063 70.49667542 16.2668806 101.90705455 16.25 133.3203125 C16.24935799 134.51552489 16.24871597 135.71073729 16.2480545 136.94216824 C16.23788238 154.1613307 16.21644819 171.38047634 16.19270325 188.59962463 C16.16848356 206.17296258 16.14574408 223.74629528 16.13408184 241.31964672 C16.12913799 248.32725379 16.11934791 255.33483133 16.10565186 262.34242654 C16.09819664 266.65846089 16.09487887 270.97449124 16.0926857 275.29053116 C16.09081651 277.28358196 16.08722119 279.27663203 16.08175278 281.26967621 C16.07451809 283.99109231 16.07349969 286.71244429 16.07397461 289.43386841 C16.06858217 290.60721196 16.06858217 290.60721196 16.06308079 291.80425942 C16.07222729 296.70670632 16.51491754 301.39333323 17.1875 306.25 C17.34117361 308.49716157 17.44882208 310.74817152 17.5 313 C17.53738281 314.08796875 17.57476563 315.1759375 17.61328125 316.296875 C17.08814862 319.93907932 16.06371977 321.03194223 13.1875 323.25 C8.50155788 324.81198071 3.78308823 324.47577748 -1.125 324.5 C-2.67477539 324.5309375 -2.67477539 324.5309375 -4.25585938 324.5625 C-5.7630957 324.57023437 -5.7630957 324.57023437 -7.30078125 324.578125 C-8.21384033 324.5874707 -9.12689941 324.59681641 -10.06762695 324.60644531 C-12.8125 324.25 -12.8125 324.25 -18.8125 321.25 C-18.8125 314.98 -18.8125 308.71 -18.8125 302.25 C-25.39002664 307.23336888 -25.39002664 307.23336888 -27.25 310.6875 C-31.42316067 317.5314835 -38.42661228 321.94069937 -45.9921875 324.19921875 C-55.96491654 326.19165616 -65.79928919 326.54560053 -75.9375 326.5625 C-76.60924255 326.56599457 -77.28098511 326.56948914 -77.9730835 326.5730896 C-92.09408371 326.6137525 -105.17147791 325.97249213 -117.8125 319.25 C-119.05424299 318.66166399 -120.29785906 318.0772708 -121.54296875 317.49609375 C-128.97047536 313.92584936 -134.31569355 310.59864599 -139.1015625 303.64453125 C-140.78388916 301.12775537 -140.78388916 301.12775537 -143.2734375 298.92578125 C-146.29553277 295.74095777 -147.95551832 292.56296089 -149.8125 288.625 C-150.32623169 287.55995239 -150.32623169 287.55995239 -150.8503418 286.47338867 C-151.5330868 285.05241056 -152.21118865 283.62919075 -152.88427734 282.20361328 C-153.67920075 280.53055249 -154.50280248 278.87116959 -155.33203125 277.21484375 C-160.96032945 265.66918067 -162.32590763 254.17100211 -162.1875 241.4375 C-162.18351196 240.77234375 -162.17952393 240.1071875 -162.17541504 239.421875 C-162.11074361 230.15340867 -161.64682007 220.96092983 -160.5625 211.75 C-160.45341309 210.78473389 -160.34432617 209.81946777 -160.23193359 208.82495117 C-159.4389751 203.01182752 -157.93387326 199.1982235 -154.8125 194.25 C-154.09580034 192.3935488 -153.42375208 190.51878994 -152.8125 188.625 C-151.33751677 184.41157893 -149.76351573 181.63498863 -146.8125 178.25 C-145.92706917 176.67247609 -145.05341435 175.08832043 -144.1875 173.5 C-140.67010396 167.56439418 -136.13921823 163.55670836 -130.8125 159.25 C-129.89339844 158.47398437 -128.97429688 157.69796875 -128.02734375 156.8984375 C-112.57604852 144.46253636 -94.76680882 141.11015617 -75.375 140.8125 C-74.47579834 140.79010254 -73.57659668 140.76770508 -72.65014648 140.74462891 C-65.93859139 140.76815867 -60.86592161 142.45904046 -54.8125 145.25 C-53.60335937 145.73210937 -52.39421875 146.21421875 -51.1484375 146.7109375 C-47.33234858 148.47152185 -43.9224577 150.53949073 -40.4375 152.875 C-39.45740967 153.52553345 -39.45740967 153.52553345 -38.45751953 154.18920898 C-33.63456608 157.47910534 -29.59818633 161.12940659 -25.7421875 165.53515625 C-23.4373654 167.5833686 -21.80413445 167.75610098 -18.8125 168.25 C-18.78924009 160.06087636 -18.77151574 151.87176674 -18.76068783 143.68261814 C-18.7554887 139.87930184 -18.74844553 136.07600829 -18.73706055 132.27270508 C-18.72612544 128.59631568 -18.72020084 124.91994804 -18.71762276 121.24354362 C-18.71578753 119.84706213 -18.71220414 118.4505817 -18.70676994 117.05410957 C-18.68192859 110.40050332 -18.7272596 103.88255295 -19.59080505 97.28166199 C-19.98959941 93.62702149 -19.89491941 89.97602116 -19.84765625 86.3046875 C-19.77866875 75.10188691 -19.96213126 63.90888106 -20.18481445 52.70849609 C-20.2508707 49.33047343 -20.31005824 45.95236977 -20.36914062 42.57421875 C-20.41104196 40.40624191 -20.45334445 38.23827278 -20.49609375 36.0703125 C-20.52116249 34.57034225 -20.52116249 34.57034225 -20.54673767 33.04006958 C-20.64695474 28.33687558 -20.91379129 23.88215037 -21.8125 19.25 C-21.92517544 17.04365764 -21.98706569 14.83417973 -22 12.625 C-22.01417969 11.51898437 -22.02835938 10.41296875 -22.04296875 9.2734375 C-21.81091683 6.22923099 -21.45848564 4.7718013 -19.8125 2.25 C-13.83970411 -0.49321924 -6.43144041 -0.05477451 0 0 Z " fill="#040606" transform="translate(1032.8125,906.75)"/>
<path d="M0 0 C2.21627362 0.01619151 4.43075155 0.00001604 6.64697266 -0.01904297 C8.0779662 -0.01706198 9.50895864 -0.0132213 10.93994141 -0.00732422 C12.21579102 -0.00394043 13.49164063 -0.00055664 14.80615234 0.00292969 C19.00826085 0.4499027 21.66880326 1.56786771 25.45556641 3.39111328 C27.01649458 3.97863968 28.57885578 4.56238265 30.14306641 5.14111328 C38.85162769 8.65112882 47.07803533 12.50399322 52.27197266 20.59423828 C53.53416186 22.51043311 54.6531745 23.9633016 56.45556641 25.39111328 C57.77556641 25.39111328 59.09556641 25.39111328 60.45556641 25.39111328 C62.3228718 21.65650249 61.70257402 16.75652305 61.70947266 12.60009766 C61.78369141 10.33251953 61.78369141 10.33251953 62.45556641 6.39111328 C67.21387721 2.41272428 72.23818222 2.20905797 78.20556641 2.20361328 C78.89650391 2.19136719 79.58744141 2.17912109 80.29931641 2.16650391 C84.97360265 2.15332453 89.07843927 2.57190427 93.45556641 4.39111328 C94.76025391 6.59814453 94.76025391 6.59814453 95.33056641 9.20361328 C95.63607422 10.48171875 95.63607422 10.48171875 95.94775391 11.78564453 C96.11533203 12.64544922 96.28291016 13.50525391 96.45556641 14.39111328 C96.64119141 15.13748047 96.82681641 15.88384766 97.01806641 16.65283203 C97.6440304 20.57069595 97.59985589 24.43033831 97.58056641 28.39111328 C97.58443359 29.18517578 97.58830078 29.97923828 97.59228516 30.79736328 C97.59035156 31.95751953 97.59035156 31.95751953 97.58837891 33.14111328 C97.58725098 33.83720703 97.58612305 34.53330078 97.58496094 35.25048828 C97.45556641 37.39111328 97.45556641 37.39111328 96.95556641 39.56420898 C96.22982589 43.66740697 96.31318926 47.71269881 96.32275391 51.87158203 C96.32179718 52.79844315 96.32084045 53.72530426 96.31985474 54.68025208 C96.31917481 56.64629179 96.32101602 58.61233375 96.32519531 60.57836914 C96.33046714 63.52316644 96.32528544 66.4678056 96.31884766 69.41259766 C96.31582491 78.95892829 96.49975427 88.44397905 97.10397339 97.97128296 C97.53173057 104.97018944 97.52798184 111.93672289 97.46728516 118.94586182 C97.45421449 121.6732065 97.46883547 124.39963886 97.48681641 127.12695312 C97.51974442 132.36912339 97.50540296 137.60969371 97.46777344 142.85180664 C97.45956094 145.02269835 97.46600549 147.19368983 97.48632812 149.36450195 C97.51342685 152.54527473 97.4895955 155.72219915 97.45556641 158.90283203 C97.47498291 159.8684758 97.49439941 160.83411957 97.5144043 161.82902527 C97.37396069 168.37994025 97.37396069 168.37994025 94.73095703 171.28994751 C92.70183384 172.82987785 90.66523806 174.12792618 88.45556641 175.39111328 C87.83230469 175.81490768 87.20904297 176.23870209 86.56689453 176.67533875 C80.17107654 181.00493202 71.81501666 179.71264266 64.45556641 179.39111328 C62.78882319 176.47287084 62.2123656 174.41516949 62.26025391 171.06298828 C62.26992188 169.86416016 62.26992188 169.86416016 62.27978516 168.64111328 C62.29654297 167.81611328 62.31330078 166.99111328 62.33056641 166.14111328 C62.33958984 165.30064453 62.34861328 164.46017578 62.35791016 163.59423828 C62.38140824 161.52640724 62.41727733 159.45872334 62.45556641 157.39111328 C58.98892907 159.32835179 56.31327892 161.32916256 53.58056641 164.20361328 C39.59821271 178.44683178 24.06901949 183.29023376 4.16821289 183.76391602 C-21.27399495 183.78783036 -40.33114728 179.09566397 -59.54443359 161.39111328 C-64.13802189 156.41142597 -67.17646771 150.61560576 -70.24755859 144.61376953 C-71.34863934 142.26102795 -71.34863934 142.26102795 -73.54443359 141.39111328 C-74.11727342 139.31343231 -74.43549024 137.23141933 -74.78662109 135.10595703 C-75.47479314 132.64059842 -76.2809688 131.05374128 -77.53662109 128.86376953 C-80.33366039 123.45045198 -80.45394157 117.88519168 -80.79443359 111.89111328 C-80.87177734 110.80185547 -80.94912109 109.71259766 -81.02880859 108.59033203 C-81.60423512 100.0925153 -81.76808436 91.92258943 -80.66943359 83.45361328 C-80.47982087 81.96283075 -80.29104337 80.47194178 -80.10302734 78.98095703 C-80.00747559 78.22411621 -79.91192383 77.46727539 -79.81347656 76.6875 C-79.54843412 74.42525931 -79.33693893 72.16429242 -79.14208984 69.89501953 C-78.35743538 61.18178395 -76.7088335 54.16317513 -72.54443359 46.39111328 C-72.06232422 45.30572266 -71.58021484 44.22033203 -71.08349609 43.10205078 C-65.25565084 30.28079123 -56.38628973 19.18546 -44.54443359 11.39111328 C-43.45130859 10.66923828 -42.35818359 9.94736328 -41.23193359 9.20361328 C-36.30555644 6.5413217 -30.89083574 4.9817284 -25.54443359 3.39111328 C-24.8009668 3.13523437 -24.0575 2.87935547 -23.29150391 2.61572266 C-15.54740013 0.15792568 -8.04014688 -0.06994551 0 0 Z " fill="#040606" transform="translate(491.54443359375,1039.60888671875)"/>
<path d="M0 0 C2.3892344 0.02946918 4.77855265 0.05280313 7.16790771 0.06988525 C10.44250573 0.09679659 13.71550493 0.14991112 16.98959351 0.21231079 C17.93678253 0.21673187 18.88397156 0.22115295 19.85986328 0.22570801 C26.11298974 0.39168403 26.11298974 0.39168403 29.2696228 2.58462524 C32.16239677 6.92915443 33.0323143 10.54818944 33.01634216 15.74372864 C33.01764633 16.92254608 33.0189505 18.10136353 33.02029419 19.31590271 C33.01153259 20.60067001 33.002771 21.88543732 32.9937439 23.20913696 C32.99154132 24.58279307 32.99023691 25.95645086 32.98976135 27.33010864 C32.98683175 30.28427524 32.97759683 33.2383308 32.96345711 36.19246483 C32.94113976 40.87089776 32.93309168 45.5492898 32.92695618 50.22776794 C32.91557856 57.63536503 32.89486061 65.04290131 32.87005848 72.45046455 C32.82577479 85.69550553 32.79245615 98.94056655 32.76981443 112.18566209 C32.76144672 116.82849989 32.74746102 121.47127605 32.7288419 126.11408365 C32.71812838 129.01426079 32.7115899 131.91443744 32.70604134 134.8146286 C32.70096701 136.78314399 32.69076371 138.75164412 32.68035889 140.72013855 C32.67173526 147.50748078 32.9846988 154.11883237 33.78256226 160.85684204 C33.90279173 162.64641148 33.99681646 164.43859467 34.03256226 166.23184204 C34.05834351 167.02332642 34.08412476 167.81481079 34.11068726 168.63027954 C33.67845103 171.56331108 32.86815792 172.74649234 30.78256226 174.85684204 C27.93515015 175.37442017 27.93515015 175.37442017 24.50521851 175.38809204 C23.2696521 175.39324829 22.03408569 175.39840454 20.76107788 175.40371704 C19.46879272 175.38824829 18.17650757 175.37277954 16.84506226 175.35684204 C14.9124353 175.38004517 14.9124353 175.38004517 12.94076538 175.40371704 C11.70390991 175.39856079 10.46705444 175.39340454 9.19271851 175.38809204 C7.49321045 175.38132446 7.49321045 175.38132446 5.7593689 175.37442017 C2.05975941 174.73116813 1.08403135 173.78034578 -1.21743774 170.85684204 C-1.69845581 168.09799194 -1.69845581 168.09799194 -1.67153931 164.89492798 C-1.67123718 163.69398499 -1.67093506 162.49304199 -1.67062378 161.25570679 C-1.64997864 159.96392517 -1.6293335 158.67214355 -1.60806274 157.34121704 C-1.60059845 156.00172775 -1.59490641 154.66222752 -1.59091187 153.32272339 C-1.57566987 149.80432768 -1.53640192 146.28659689 -1.49209595 142.76846313 C-1.45111138 139.17561843 -1.43289414 135.58266584 -1.41275024 131.98965454 C-1.36990519 124.94511238 -1.30167221 117.90102072 -1.21743774 110.85684204 C-3.32320233 110.80346627 -5.42935248 110.76513338 -7.53555298 110.73330688 C-8.70835312 110.71037567 -9.88115326 110.68744446 -11.0894928 110.66381836 C-14.37056713 110.59948946 -14.37056713 110.59948946 -17.12759399 112.83340454 C-17.81724243 113.83113892 -18.50689087 114.82887329 -19.21743774 115.85684204 C-20.25427473 117.17992655 -21.29495535 118.500004 -22.33853149 119.81777954 C-23.44779702 121.28627341 -24.55319425 122.75769635 -25.65493774 124.23184204 C-29.68144407 129.60051714 -33.79816336 134.8043383 -38.21743774 139.85684204 C-41.34573598 138.37410667 -43.18460883 137.03220132 -45.40493774 134.35684204 C-48.07387502 131.18605331 -50.8236092 128.13343462 -53.65493774 125.10684204 C-57.83050245 120.52581365 -61.09879524 115.62621508 -64.29556274 110.32559204 C-66.49544703 107.49972442 -67.7791025 106.73581496 -71.21743774 105.85684204 C-73.8846708 105.61760665 -73.8846708 105.61760665 -76.52993774 105.73184204 C-77.41294556 105.74988892 -78.29595337 105.76793579 -79.20571899 105.78652954 C-79.86958618 105.80973267 -80.53345337 105.83293579 -81.21743774 105.85684204 C-82.1584212 108.6797924 -82.3258959 110.30214869 -82.28335571 113.21377563 C-82.27359711 114.09254364 -82.2638385 114.97131165 -82.25378418 115.87670898 C-82.23921173 116.82663727 -82.22463928 117.77656555 -82.20962524 118.75527954 C-82.19208553 120.78261808 -82.17517955 122.80996219 -82.15884399 124.83731079 C-82.12809646 128.02090041 -82.09284395 131.20420744 -82.04605103 134.38760376 C-81.6545116 162.51245282 -81.6545116 162.51245282 -87.21743774 170.85684204 C-95.35129937 172.11199164 -107.93733446 171.61261471 -114.86110878 166.68768787 C-116.84854911 164.00493396 -116.59509886 161.92939021 -116.59838867 158.61408997 C-116.60684814 157.3060289 -116.61530762 155.99796783 -116.62402344 154.65026855 C-116.6181902 153.19723387 -116.61204568 151.74420041 -116.60562134 150.29116821 C-116.60968573 148.76353072 -116.61502687 147.23589617 -116.62155151 145.70826721 C-116.63525019 141.55520884 -116.6299151 137.40237358 -116.62041426 133.24931121 C-116.61282671 128.90390779 -116.61986113 124.55852366 -116.62457275 120.21311951 C-116.6300347 112.91195239 -116.62282904 105.61087622 -116.60855103 98.3097229 C-116.59224197 89.87264835 -116.59749852 81.43579148 -116.61403024 72.99872226 C-116.62765452 65.75529691 -116.62955961 58.51193703 -116.62171423 51.26850301 C-116.61704053 46.94232926 -116.61640415 42.61625772 -116.6263237 38.29009056 C-116.63500414 34.21970147 -116.62895187 30.14959211 -116.61164093 26.07923317 C-116.60768104 24.58691497 -116.60880163 23.09457314 -116.61542892 21.6022644 C-116.62365383 19.56169995 -116.61150042 17.52108394 -116.59838867 15.48054504 C-116.5972576 14.33957461 -116.59612652 13.19860418 -116.59496117 12.02305889 C-116.15939273 8.37002959 -115.13597956 5.98314605 -113.21743774 2.85684204 C-109.54895556 0.41118725 -107.70894775 0.57876005 -103.32998657 0.52212524 C-102.62841084 0.51051015 -101.92683512 0.49889505 -101.20399952 0.48692799 C-98.86084822 0.4508261 -96.51779714 0.42904963 -94.17446899 0.40762329 C-92.51384601 0.38574137 -90.85323192 0.36317479 -89.19262695 0.33996582 C-84.72919231 0.28091078 -80.26572576 0.23575549 -75.80208969 0.19503403 C-73.03822072 0.16941881 -70.27439311 0.14100316 -67.51055908 0.11187744 C-45.00828187 -0.12104615 -22.50249066 -0.28455933 0 0 Z " fill="#040606" transform="translate(1511.2174377441406,1054.1431579589844)"/>
<path d="M0 0 C1.24201172 -0.01224609 2.48402344 -0.02449219 3.76367188 -0.03710938 C14.37832994 -0.05380784 24.96910215 0.59334829 34.6875 5.1875 C35.37585937 6.20263672 35.37585937 6.20263672 36.078125 7.23828125 C37.54181489 9.40854274 37.54181489 9.40854274 40.10546875 9.76953125 C41.01941406 9.84558594 41.93335938 9.92164063 42.875 10 C48.39469419 10.80206917 51.08514782 12.65167501 54.98046875 16.5390625 C56.69068904 18.36020775 56.69068904 18.36020775 59.375 19.5 C62.60731416 21.85871574 63.54141173 24.75832409 65.18359375 28.3515625 C66.81869106 31.43488886 68.76472419 33.82380357 71 36.5 C81.35130661 50.00170427 85.06192195 66.48135805 85.6875 83.1875 C85.74421875 84.35023437 85.8009375 85.51296875 85.859375 86.7109375 C86.04166667 93.65625 86.04166667 93.65625 83.6875 97.1875 C81.38505554 97.61987305 81.38505554 97.61987305 78.46362305 97.69921875 C77.36798538 97.73474854 76.27234772 97.77027832 75.14350891 97.80688477 C73.94501816 97.82936279 72.7465274 97.85184082 71.51171875 97.875 C70.26218918 97.90843506 69.01265961 97.94187012 67.7252655 97.97631836 C53.99843796 98.30455457 40.2698382 98.26131052 26.54013062 98.19625854 C20.25205028 98.169263 13.96391278 98.16087785 7.67578125 98.15625 C6.98860645 98.15570114 6.30143166 98.15515228 5.59343338 98.15458679 C-12.71698447 98.14660865 -31.01320835 98.57622302 -49.3125 99.1875 C-49.23668701 100.01314453 -49.16087402 100.83878906 -49.08276367 101.68945312 C-48.98713135 102.77162109 -48.89149902 103.85378906 -48.79296875 104.96875 C-48.69653076 106.04189453 -48.60009277 107.11503906 -48.50073242 108.22070312 C-48.3125 111.1875 -48.3125 111.1875 -48.625 114.6875 C-47.82637423 123.63210858 -42.38615988 130.86368954 -35.8515625 136.6640625 C-35.34367187 137.16679688 -34.83578125 137.66953125 -34.3125 138.1875 C-34.3125 138.8475 -34.3125 139.5075 -34.3125 140.1875 C-33.6525 140.39375 -32.9925 140.6 -32.3125 140.8125 C-29.6380018 142.03831168 -28.04294082 143.16177653 -25.8125 145 C-14.80795225 153.30955646 -2.65596826 154.57702979 10.6875 153.1875 C13.72784512 152.65733864 16.70227408 151.96743984 19.6875 151.1875 C20.74195313 150.91292969 21.79640625 150.63835937 22.8828125 150.35546875 C36.00897566 145.96257948 47.88426275 135.57130266 54.4375 123.375 C54.86546875 122.58480469 55.2934375 121.79460937 55.734375 120.98046875 C56.04890625 120.38878906 56.3634375 119.79710937 56.6875 119.1875 C60.78303673 119.57755112 63.50216377 120.45544487 66.8359375 122.87109375 C69.32734049 124.64240769 71.912865 126.24717733 74.5 127.875 C79.57071168 131.07071168 79.57071168 131.07071168 80.6875 132.1875 C81.26499798 136.68441052 81.16696191 140.22857618 79.125 144.3125 C76.70224404 147.1701096 74.15280614 149.75573549 71.453125 152.34765625 C69.73474401 154.13827007 68.43816408 155.94064744 67.0625 158 C57.08697 171.74644081 38.03020324 180.73676216 21.76391602 183.80151367 C15.76223731 184.55452169 9.7332372 184.5204208 3.69360352 184.50317383 C1.38965194 184.50002006 -0.91300365 184.52352252 -3.21679688 184.54882812 C-12.3027858 184.58867895 -20.53703461 183.79629863 -29.3125 181.1875 C-30.51048218 180.83643188 -30.51048218 180.83643188 -31.73266602 180.47827148 C-43.2519865 176.81813149 -49.84016372 171.59760021 -57.3125 162.1875 C-58.64213479 160.85047835 -59.97502805 159.51668183 -61.3125 158.1875 C-62.31843752 156.91657127 -63.29869719 155.62482355 -64.25 154.3125 C-65.98109892 151.93043073 -67.71126534 149.75431355 -69.7109375 147.58203125 C-78.41738148 137.17545442 -82.96506113 120.53037177 -83.3125 107.1875 C-83.33602539 106.29901367 -83.35955078 105.41052734 -83.38378906 104.49511719 C-83.74693394 87.13909773 -83.74693394 87.13909773 -82.3125 80.1875 C-82.31788353 78.33287304 -82.3618636 76.47809181 -82.4375 74.625 C-82.50442328 65.59035733 -81.05127612 58.2221288 -75.3125 51.1875 C-74.96295168 49.61593076 -74.67846635 48.02933828 -74.4375 46.4375 C-73.62581815 41.52353421 -71.80364776 38.35210723 -68.84765625 34.390625 C-67.18834662 32.14332663 -67.18834662 32.14332663 -65.921875 29.20703125 C-64.15930281 25.90006935 -62.33127023 24.05615216 -59.5 21.625 C-58.66855469 20.90183594 -57.83710937 20.17867187 -56.98046875 19.43359375 C-55.65982422 18.32177734 -55.65982422 18.32177734 -54.3125 17.1875 C-53.3534375 16.35605469 -52.394375 15.52460937 -51.40625 14.66796875 C-35.72793239 2.09760047 -19.56715356 0.01006023 0 0 Z " fill="#030505" transform="translate(1167.3125,1045.8125)"/>
<path d="M0 0 C1.06250977 -0.01836914 1.06250977 -0.01836914 2.14648438 -0.03710938 C3.91173744 -0.04216741 5.67667213 0.06248334 7.4375 0.1875 C9.89277179 2.64277179 9.68292215 4.01625615 9.71539307 7.36851501 C9.70932037 8.42166649 9.70932037 8.42166649 9.703125 9.49609375 C9.70503845 10.21861832 9.7069519 10.94114288 9.70892334 11.68556213 C9.71028504 13.21461332 9.70658964 14.74367607 9.69824219 16.27270508 C9.68755751 18.61240684 9.6981295 20.95133807 9.7109375 23.29101562 C9.7096156 24.77604336 9.70705257 26.26107062 9.703125 27.74609375 C9.70717346 28.4461705 9.71122192 29.14624725 9.71539307 29.86753845 C9.68007654 33.53123296 9.52745623 35.05256566 7.4375 38.1875 C4.5043642 39.16521193 2.55571006 39.32169011 -0.5 39.3125 C-1.78197266 39.31636719 -1.78197266 39.31636719 -3.08984375 39.3203125 C-5.5625 39.1875 -5.5625 39.1875 -7.3551178 38.68530273 C-10.07442203 38.07205276 -12.56484698 38.07558583 -15.35327148 38.08984375 C-16.51805527 38.09314697 -17.68283905 38.0964502 -18.88291931 38.09985352 C-20.13714188 38.10815186 -21.39136444 38.1164502 -22.68359375 38.125 C-24.65765634 38.13078541 -26.63171896 38.13656521 -28.60578251 38.14201355 C-32.77126919 38.15515128 -36.9367175 38.17731598 -41.10217285 38.19787598 C-44.53157772 38.21445859 -47.9609636 38.22906539 -51.39039612 38.23852539 C-53.96132675 38.24605447 -56.53224895 38.25810918 -59.10313416 38.27514648 C-60.2710701 38.27844971 -61.43900604 38.28175293 -62.64233398 38.28515625 C-64.17977516 38.29301147 -64.17977516 38.29301147 -65.74827576 38.30102539 C-68.46585656 38.19139858 -70.91098412 37.76513245 -73.5625 37.1875 C-83.63787544 36.76118201 -93.79860997 37.35914962 -103.875 37.6875 C-105.40559308 37.73586356 -106.93619202 37.78404172 -108.46679688 37.83203125 C-112.16543448 37.94839093 -115.86398712 38.06723356 -119.5625 38.1875 C-120.62488111 41.64128427 -120.66287835 44.7806863 -120.625 48.3828125 C-120.61206909 50.26939575 -120.61206909 50.26939575 -120.59887695 52.1940918 C-120.59264313 52.86467621 -120.5864093 53.53526062 -120.57998657 54.22616577 C-120.47828652 66.36006427 -120.54053115 78.49463778 -120.82495117 90.62567139 C-120.85816257 92.11828091 -120.8862064 93.61101487 -120.90893555 95.1038208 C-120.94207687 97.19871697 -120.99394224 99.29234863 -121.05078125 101.38671875 C-121.07696533 102.58127686 -121.10314941 103.77583496 -121.13012695 105.0065918 C-121.60058411 108.46767947 -122.72208996 110.27277776 -124.5625 113.1875 C-124.5625 114.5075 -124.5625 115.8275 -124.5625 117.1875 C-123.0775 118.1775 -123.0775 118.1775 -121.5625 119.1875 C-120.61328125 121.1328125 -120.61328125 121.1328125 -119.875 123.3125 C-119.62363281 124.03695313 -119.37226563 124.76140625 -119.11328125 125.5078125 C-118.93152344 126.06210938 -118.74976563 126.61640625 -118.5625 127.1875 C-117.39074219 127.24808594 -116.21898437 127.30867188 -115.01171875 127.37109375 C-113.42445404 127.45525664 -111.83721612 127.53992572 -110.25 127.625 C-109.43144531 127.66866699 -108.61289063 127.71233398 -107.76953125 127.75732422 C-102.33754681 128.05826815 -96.93773348 128.48415544 -91.53125 129.1015625 C-89.48393994 129.35063391 -89.48393994 129.35063391 -87.5625 128.1875 C-85.26784633 128.07984819 -82.96999665 128.03856671 -80.67285156 128.02636719 C-79.96352982 128.02140228 -79.25420807 128.01643738 -78.52339172 128.01132202 C-76.16662632 127.99667258 -73.80992855 127.98988857 -71.453125 127.984375 C-69.80800374 127.9786193 -68.16288248 127.97286162 -66.51776123 127.96710205 C-63.05757332 127.95657972 -59.59740869 127.95074728 -56.13720703 127.94726562 C-51.73969055 127.94182328 -47.34249039 127.91789325 -42.94507217 127.88929367 C-39.53889126 127.87049279 -36.13278325 127.86545219 -32.72655487 127.86392975 C-31.1081141 127.8609343 -29.48967363 127.85301322 -27.87128448 127.83974457 C-2.68379505 127.64823628 -2.68379505 127.64823628 6.4375 134.1875 C8.6685521 142.90621675 5.49162726 154.52812866 3.4375 163.1875 C2.7775 164.1775 2.1175 165.1675 1.4375 166.1875 C-1.05101371 166.5386036 -3.30372019 166.70018626 -5.80078125 166.734375 C-6.51856247 166.75469788 -7.23634369 166.77502075 -7.97587585 166.79595947 C-9.49636441 166.83619687 -11.0170543 166.86935222 -12.5378418 166.89599609 C-14.85596663 166.937162 -17.17271463 166.99981794 -19.49023438 167.06640625 C-20.9687192 167.10283462 -22.44723502 167.13803054 -23.92578125 167.171875 C-24.61553543 167.1894989 -25.30528961 167.2071228 -26.01594543 167.22528076 C-28.75404585 167.2688876 -31.30988139 167.23914647 -33.99875736 166.6894207 C-36.46495736 166.20659656 -38.64040425 166.07172966 -41.14756775 166.08743286 C-42.03767044 166.09039368 -42.92777313 166.09335449 -43.84484863 166.09640503 C-44.80862427 166.10471344 -45.7723999 166.11302185 -46.76538086 166.12158203 C-47.79035172 166.12625488 -48.81532257 166.13092773 -49.87135315 166.13574219 C-52.0937551 166.14623198 -54.31614763 166.15889045 -56.53852654 166.17346573 C-60.05649349 166.19549503 -63.57440653 166.20956965 -67.09242249 166.22116089 C-77.09383519 166.25475177 -87.09515834 166.29642804 -97.09643555 166.35888672 C-103.21650021 166.39653812 -109.33647322 166.41955819 -115.45663643 166.43319321 C-117.78784302 166.44124649 -120.1190373 166.45485394 -122.45017815 166.47412491 C-125.71030872 166.50060804 -128.96999981 166.50849752 -132.23022461 166.51220703 C-133.19197601 166.5245639 -134.15372742 166.53692078 -135.1446228 166.5496521 C-140.29168522 166.53421054 -144.30061478 166.40220107 -148.5625 163.1875 C-151.69118404 157.91893918 -151.92449716 153.60579261 -151.62792969 147.59594727 C-151.60077126 146.75780676 -151.57361282 145.91966625 -151.54563141 145.05612755 C-151.48588022 143.23065189 -151.41944092 141.4053856 -151.34708405 139.58036613 C-151.15000608 134.52886088 -151.01182544 129.47575665 -150.87304688 124.42236328 C-150.84297672 123.35132197 -150.81290657 122.28028067 -150.7819252 121.17678356 C-150.48879996 109.92322811 -150.53034521 98.67663156 -150.61488342 87.42048264 C-150.64063872 83.96300206 -150.66089211 80.50552971 -150.67956543 77.04800415 C-150.73190174 67.65788492 -150.7885911 58.26796054 -150.88476562 48.87817383 C-150.94394818 43.0167359 -150.97903251 37.15558662 -150.99794769 31.29388618 C-151.00965371 29.08937478 -151.03040893 26.8848913 -151.06058502 24.68055534 C-151.10136366 21.64204979 -151.1114624 18.60490535 -151.11425781 15.56616211 C-151.13380524 14.66941269 -151.15335266 13.77266327 -151.17349243 12.84873962 C-151.13365449 6.80165113 -151.13365449 6.80165113 -148.21551514 3.66383362 C-144.64535834 1.67713462 -142.02084171 1.06299997 -138.00170898 1.07397461 C-137.06582947 1.0740451 -136.12994995 1.0741156 -135.16571045 1.07418823 C-134.14036194 1.07935455 -133.11501343 1.08452087 -132.05859375 1.08984375 C-130.43585541 1.09203415 -130.43585541 1.09203415 -128.78033447 1.0942688 C-126.4247899 1.09808022 -124.06924822 1.10420246 -121.7137146 1.11233521 C-117.96970041 1.12510333 -114.22572173 1.13161736 -110.48168945 1.13647461 C-101.83678483 1.14888823 -93.19191075 1.17038517 -84.54702759 1.19270325 C-76.0303894 1.214635 -67.51376124 1.23247759 -58.99710083 1.24343872 C-55.33780536 1.24984625 -51.67856499 1.26236241 -48.01928711 1.27514648 C-36.42485799 1.3002928 -24.89123832 1.15259363 -13.31800842 0.42045593 C-8.87555693 0.1448886 -4.45002648 0.00446342 0 0 Z " fill="#030505" transform="translate(359.5625,1048.8125)"/>
<path d="M0 0 C1.43951523 -0.00422974 1.43951523 -0.00422974 2.90811157 -0.00854492 C3.95994125 -0.00652069 5.01177094 -0.00449646 6.09547424 -0.00241089 C7.20495422 -0.00416321 8.3144342 -0.00591553 9.45753479 -0.00772095 C13.14358566 -0.01213802 16.82958885 -0.00919856 20.51564026 -0.00582886 C23.08660898 -0.00650275 25.65757764 -0.00747349 28.22854614 -0.00872803 C33.63487915 -0.01020546 39.04119432 -0.00814773 44.44752502 -0.00338745 C50.64619131 0.00200844 56.84482445 0.00032701 63.04348987 -0.00521386 C69.04433857 -0.0103585 75.04517147 -0.00973623 81.04602242 -0.00683212 C83.57775439 -0.00617146 86.10948722 -0.00696069 88.64121819 -0.00931168 C96.5390504 -0.01502745 104.43491868 0.01792305 112.33204651 0.12698364 C113.8532353 0.14679165 113.8532353 0.14679165 115.40515518 0.16699982 C118.22463374 0.21526508 121.04127174 0.29360147 123.8596344 0.38528442 C125.09507193 0.40566175 125.09507193 0.40566175 126.3554678 0.42645073 C131.83517269 0.65743362 131.83517269 0.65743362 134.29907227 2.98583984 C136.00424521 6.52031372 136.45518043 9.23665661 136.4455719 13.11210632 C136.4455014 14.14198669 136.44543091 15.17186707 136.44535828 16.23295593 C136.4376088 17.92762245 136.4376088 17.92762245 136.42970276 19.65652466 C136.42824249 20.84724579 136.42678223 22.03796692 136.42527771 23.26477051 C136.42046782 26.53637829 136.41127859 29.80794137 136.40050888 33.07953382 C136.39051354 36.51843543 136.38700908 39.95734252 136.3830719 43.39625549 C136.37102617 52.90030962 136.34913004 62.40433625 136.32684326 71.90837097 C136.30656486 80.58100523 136.28849015 89.25362916 136.27862835 97.92628235 C136.27450594 101.33955373 136.26828322 104.75279262 136.25688171 108.16604805 C136.21517142 121.33349267 136.1901357 134.45431892 137.09909058 147.59547424 C137.42970347 152.60742012 137.5157017 157.60565864 137.51954651 162.62698364 C137.5317926 163.53061646 137.5440387 164.43424927 137.55665588 165.36526489 C137.55858948 166.22506958 137.56052307 167.08487427 137.56251526 167.97073364 C137.56662415 168.72547974 137.57073303 169.48022583 137.57496643 170.25784302 C137.33204651 172.12698364 137.33204651 172.12698364 135.33204651 174.12698364 C131.23359403 174.54837283 127.12914882 174.49857863 123.01075745 174.49758911 C120.97116543 174.50195343 118.93375407 174.53823842 116.89454651 174.57620239 C115.60806213 174.58006958 114.32157776 174.58393677 112.99610901 174.58792114 C111.81484436 174.59613892 110.63357971 174.60435669 109.41651917 174.61282349 C105.72517618 174.0313946 104.55475015 173.07733204 102.33204651 170.12698364 C101.90626526 167.47073364 101.90626526 167.47073364 102.01954651 164.62698364 C102.0440387 163.68854614 102.06853088 162.75010864 102.09376526 161.78323364 C102.33204651 159.12698364 102.33204651 159.12698364 102.84083557 157.36404419 C103.48521772 154.42941515 103.4433686 151.68277748 103.42970276 148.67776489 C103.42639954 147.36960815 103.42309631 146.06145142 103.41969299 144.71365356 C103.41557404 144.01726776 103.41145508 143.32088196 103.4072113 142.60339355 C103.39441868 140.41764349 103.3879247 138.2319543 103.3830719 136.0461731 C103.37165671 131.40641595 103.35241615 126.76670899 103.33204651 122.12698364 C103.30843824 116.74957631 103.28804663 111.37219798 103.27610779 105.99475098 C103.26963303 103.84323256 103.25712557 101.69180292 103.24440002 99.54031372 C103.2410968 98.23215698 103.23779358 96.92400024 103.23439026 95.57620239 C103.22915344 94.42466675 103.22391663 93.2731311 103.21852112 92.08670044 C103.31586419 89.54887232 103.65605749 87.549305 104.33204651 85.12698364 C104.42585885 82.83685887 104.46197563 80.54402377 104.45704651 78.25198364 C104.45962463 77.05831177 104.46220276 75.86463989 104.46485901 74.63479614 C104.41914297 71.23555935 104.41914297 71.23555935 103.82984924 68.36819458 C103.2790849 64.78214875 103.21939997 61.38744651 103.23439026 57.75979614 C103.23580521 57.08020844 103.23722015 56.40062073 103.23867798 55.70043945 C103.24423133 53.55090752 103.25677482 51.40148357 103.26954651 49.25198364 C103.27456755 47.78583932 103.2791294 46.31969336 103.28321838 44.85354614 C103.2941854 41.27799081 103.31141732 37.70249778 103.33204651 34.12698364 C100.18741227 33.07877223 98.0746545 33.02996705 94.77833557 33.07693481 C93.63995239 33.08992111 92.50156921 33.10290741 91.32868958 33.11628723 C90.09745361 33.13399673 88.86621765 33.15170624 87.59767151 33.16995239 C84.99611667 33.19234535 82.39455362 33.21380023 79.79298401 33.23440552 C75.68699964 33.27017203 71.58129319 33.31277727 67.4756012 33.37380981 C63.5163844 33.43189186 59.55723867 33.45741906 55.59767151 33.48245239 C54.37453247 33.50623459 53.15139343 33.53001678 51.89118958 33.55451965 C45.0185977 33.57559624 40.99315739 33.04401979 35.33204651 29.12698364 C34.34204651 29.12698364 33.35204651 29.12698364 32.33204651 29.12698364 C31.67204651 30.11698364 31.01204651 31.10698364 30.33204651 32.12698364 C28.03060542 33.19834415 25.69802521 34.20688081 23.33204651 35.12698364 C23.2411676 36.95809692 23.2411676 36.95809692 23.14845276 38.82620239 C23.06417147 40.4889808 22.97950994 42.15173995 22.89454651 43.81448364 C22.85087952 44.67485229 22.80721252 45.53522095 22.76222229 46.42166138 C22.44129906 52.54832572 21.99380866 58.64747977 21.41798401 64.75588989 C21.14170116 67.14572323 21.14170116 67.14572323 22.33204651 69.12698364 C22.44066192 71.67706209 22.48936181 74.20024128 22.49317932 76.75100708 C22.50062668 77.93203255 22.50062668 77.93203255 22.50822449 79.13691711 C22.52287699 81.75340646 22.52965788 84.36983492 22.53517151 86.98635864 C22.54092623 88.81084189 22.54668393 90.63532512 22.55244446 92.45980835 C22.56296716 96.29662355 22.5687996 100.13341775 22.57228088 103.97024536 C22.57772828 108.85202113 22.60166946 113.73351267 22.63025284 118.61520004 C22.6490294 122.39196533 22.65409302 126.16866473 22.65561676 129.94547272 C22.65861677 131.74254132 22.66655398 133.53960951 22.67980194 135.33663177 C22.85680116 161.22187597 22.85680116 161.22187597 16.33204651 171.12698364 C-3.35727388 170.28232345 -3.35727388 170.28232345 -11.66795349 166.12698364 C-11.84277667 161.46225725 -12.00208156 156.79727529 -12.15013123 152.13162231 C-12.20174037 150.5624848 -12.25678811 148.99345453 -12.31614685 147.42459106 C-12.73227956 136.33374969 -12.58673304 125.31883475 -12.18357849 114.22854614 C-11.69479557 100.69538604 -11.62488004 87.18760586 -11.71092224 73.64651489 C-11.72145403 71.69325337 -11.73183475 69.73999103 -11.74206543 67.78672791 C-11.78629974 59.78827511 -11.8357073 51.78997165 -11.91477966 43.79177856 C-11.96325977 38.81300851 -11.99225771 33.83444949 -12.00852394 28.85547447 C-12.01837302 26.98197851 -12.03550876 25.10850519 -12.06030846 23.23514748 C-12.09403933 20.64128646 -12.10293614 18.04842921 -12.10618591 15.45437622 C-12.12213806 14.69557663 -12.13809021 13.93677704 -12.15452576 13.15498352 C-12.12515855 8.01532168 -10.99161067 5.03829412 -7.66795349 1.12698364 C-4.78790189 0.16696644 -2.9905725 0.00135185 0 0 Z " fill="#040606" transform="translate(679.6679534912109,1049.8730163574219)"/>
<path d="M0 0 C0.95970703 -0.00257813 1.91941406 -0.00515625 2.90820312 -0.0078125 C8.97640205 0.07502981 13.68703769 0.89350915 19.1875 3.5 C20.35615867 5.83731733 20.32454867 7.22647229 20.34571838 9.83175659 C20.3555072 10.74778625 20.36529602 11.6638159 20.37538147 12.60760403 C20.38401466 14.12804365 20.38401466 14.12804365 20.39282227 15.67919922 C20.40272186 16.75173226 20.41262146 17.82426531 20.42282104 18.92929935 C20.4548293 22.55440569 20.47948577 26.17952261 20.50390625 29.8046875 C20.5246058 32.40320567 20.54560416 35.00172147 20.56687927 37.60023499 C20.61785763 43.96422965 20.66253678 50.32825538 20.70490164 56.69231266 C20.73952132 61.88100247 20.77670433 67.06966879 20.81518555 72.2583313 C21.08250693 108.53813329 21.2243888 144.81684985 21.21484375 181.09765625 C21.21465406 181.94855898 21.21446436 182.79946171 21.21426892 183.67614937 C21.21027915 200.38610991 21.19791445 217.0960468 21.16457301 233.80597621 C21.15212862 240.05972136 21.14256372 246.31346653 21.13498467 252.56721944 C21.12943336 256.8843385 21.11932237 261.20141358 21.10549253 265.51851368 C21.09634033 268.76095336 21.09362009 272.00339989 21.08984375 275.24584961 C21.08468026 276.39436338 21.07951677 277.54287716 21.07419682 278.72619438 C21.07382515 284.10374019 21.26708265 289.20134715 22.1875 294.5 C22.26939033 296.07662056 22.31790693 297.65563099 22.3203125 299.234375 C22.32224609 300.46607422 22.32224609 300.46607422 22.32421875 301.72265625 C22.32035156 302.55667969 22.31648438 303.39070313 22.3125 304.25 C22.31830078 305.52423828 22.31830078 305.52423828 22.32421875 306.82421875 C22.32292969 307.64019531 22.32164063 308.45617188 22.3203125 309.296875 C22.31918457 310.03260742 22.31805664 310.76833984 22.31689453 311.52636719 C22.1875 313.5 22.1875 313.5 21.1875 316.5 C15.08449971 319.14088634 9.03656464 318.90390258 2.5 318.9375 C1.35982422 318.97037109 0.21964844 319.00324219 -0.95507812 319.03710938 C-2.04626953 319.04419922 -3.13746094 319.05128906 -4.26171875 319.05859375 C-5.25518311 319.07204834 -6.24864746 319.08550293 -7.2722168 319.09936523 C-9.8125 318.5 -9.8125 318.5 -11.45097351 316.53236389 C-13.30928073 312.39358014 -13.20217273 308.86814575 -13.13720703 304.3828125 C-13.13603882 303.4732782 -13.13487061 302.5637439 -13.13366699 301.62664795 C-13.12649051 298.62586527 -13.09828494 295.62565463 -13.0703125 292.625 C-13.06217384 290.53662626 -13.05551148 288.44824629 -13.05026245 286.35986328 C-13.03314978 280.86421874 -12.99890318 275.36882103 -12.96020508 269.87329102 C-12.9010001 261.07721355 -12.86711763 252.28101113 -12.83443832 243.48480225 C-12.82048578 240.41314813 -12.79889047 237.34161972 -12.77615356 234.27001953 C-12.76612849 232.38574307 -12.75626276 230.50146576 -12.74658203 228.6171875 C-12.73827362 227.76404968 -12.72996521 226.91091187 -12.72140503 226.03192139 C-12.70631246 222.00200104 -13.01748252 218.45533001 -13.8125 214.5 C-13.949489 211.49980005 -13.91808258 208.50293195 -13.89477539 205.50024414 C-13.89213873 204.59685492 -13.88950207 203.69346569 -13.88678551 202.76270103 C-13.88081858 200.7911642 -13.87273103 198.81963292 -13.86279106 196.84811211 C-13.83649204 191.41716036 -13.82905393 185.98618032 -13.82080078 180.55517578 C-13.81880771 179.40973895 -13.81681463 178.26430212 -13.81476116 177.08415508 C-13.78976343 157.10806896 -14.00147723 137.1325136 -14.18481445 117.1574707 C-14.22913789 112.31373947 -14.27071787 107.46999693 -14.30981445 102.6262207 C-14.60546637 65.01983346 -14.60546637 65.01983346 -15.69744873 27.43023682 C-15.881374 22.74585057 -16.03293669 18.06042882 -16.1875 13.375 C-16.22621719 12.63165909 -16.26493439 11.88831818 -16.30482483 11.12245178 C-16.35853596 7.55278219 -15.86494802 5.58404988 -13.96484375 2.5390625 C-9.35035 -0.44577733 -5.37918507 -0.1570565 0 0 Z " fill="#030505" transform="translate(1303.8125,906.5)"/>
<path d="M0 0 C11.17782896 9.7188124 16.67506911 19.50071062 17.8125 34.3125 C19.60046825 70.39369932 19.60046825 70.39369932 9.75 82.5 C8.79512934 83.4622347 7.81832257 84.40365757 6.8125 85.3125 C3.94614262 87.9567545 3.94614262 87.9567545 2.00390625 91.23046875 C0.44381703 93.9567886 -1.28897824 94.88486085 -4 96.4375 C-4.85207031 96.93507813 -5.70414063 97.43265625 -6.58203125 97.9453125 C-10.7019888 100.10720927 -14.54592916 101.50230105 -19.125 102.3125 C-21.97549319 102.84067962 -24.40737403 103.39670708 -27.125 104.4375 C-37.44558495 107.38623856 -51.7481706 105.30412122 -61.44140625 100.80078125 C-66.49300074 97.67427284 -70.98247813 93.9560007 -75.33984375 89.9296875 C-77.14328717 88.35119791 -78.98342636 87.10074955 -81 85.8125 C-86.80151583 81.73825366 -87.4759498 75.27685113 -88.65234375 68.72265625 C-89.16276394 66.05639109 -89.16276394 66.05639109 -90.75 62.75 C-92.51063916 58.53977593 -92.93375344 54.83380232 -93.1875 50.3125 C-93.24035156 49.63703125 -93.29320312 48.9615625 -93.34765625 48.265625 C-93.95200756 34.28671639 -89.32942609 17.79128105 -81.1875 6.3125 C-79.0304781 4.05276277 -76.82070644 2.00385426 -74.1875 0.3125 C-73.5275 0.3125 -72.8675 0.3125 -72.1875 0.3125 C-72.0121875 -0.26242187 -71.836875 -0.83734375 -71.65625 -1.4296875 C-69.45884841 -4.80760804 -66.21855553 -6.11714296 -62.6875 -7.8125 C-61.96135498 -8.16505859 -61.23520996 -8.51761719 -60.48706055 -8.88085938 C-40.11586968 -18.47370234 -16.97380386 -14.20979774 0 0 Z " fill="#FDFDFD" transform="translate(538.1875,1085.6875)"/>
<path d="M0 0 C12.66160013 11.44413858 12.66160013 11.44413858 15.234375 19.01953125 C15.89965422 20.19901034 16.58815926 21.36562945 17.296875 22.51953125 C24.34956717 34.60601516 24.365481 55.48754918 20.984375 68.87109375 C15.17355145 85.51668205 4.35522181 96.7238165 -11.17578125 104.41796875 C-15.67989903 106.42742282 -18.89756375 107.10116033 -23.765625 107.01953125 C-25.065 107.07753906 -26.364375 107.13554688 -27.703125 107.1953125 C-35.58023512 107.48559126 -42.07021659 107.21849133 -49.41796875 104.015625 C-51.62204355 103.08045183 -53.54447356 102.61565645 -55.890625 102.20703125 C-61.14750416 100.9732739 -64.7958973 97.51400986 -68.765625 94.01953125 C-69.4359375 93.478125 -70.10625 92.93671875 -70.796875 92.37890625 C-75.62416263 88.12629572 -78.65896763 83.17391043 -81.703125 77.58203125 C-82.09306641 76.87836426 -82.48300781 76.17469727 -82.88476562 75.44970703 C-85.55637977 70.2957776 -86.52852266 65.79496398 -86.765625 60.01953125 C-86.80357178 59.17398682 -86.84151855 58.32844238 -86.88061523 57.45727539 C-87.4521815 40.12820943 -86.69326974 23.84183418 -74.765625 10.20703125 C-73.44181054 8.80216693 -72.10962437 7.40509762 -70.765625 6.01953125 C-70.0025 5.17390625 -69.239375 4.32828125 -68.453125 3.45703125 C-48.81492456 -14.35435985 -21.24049473 -17.79085234 0 0 Z " fill="#FDFDFD" transform="translate(993.765625,1093.98046875)"/>
<path d="M0 0 C3.40312738 1.05875074 6.01353231 2.00902154 9 4 C11.6259175 4.3218789 11.6259175 4.3218789 14.6171875 4.30297852 C16.34412842 4.32794151 16.34412842 4.32794151 18.10595703 4.35340881 C19.9716333 4.36603004 19.9716333 4.36603004 21.875 4.37890625 C23.78901611 4.40439796 23.78901611 4.40439796 25.74169922 4.43040466 C29.13370549 4.47459626 32.52559238 4.51088732 35.91772461 4.54260254 C40.69802309 4.58828132 45.47817566 4.64423648 50.25830078 4.70530701 C52.80348765 4.73729661 55.34874471 4.76417645 57.89404297 4.78553772 C59.62098389 4.80577248 59.62098389 4.80577248 61.3828125 4.82641602 C62.39746582 4.83592789 63.41211914 4.84543976 64.45751953 4.85523987 C67 5 67 5 70 6 C70.90316325 8.70948975 71.146575 10.40135334 71.20532227 13.19604492 C71.2352401 14.45701241 71.2352401 14.45701241 71.26576233 15.74345398 C71.28247482 16.64666885 71.29918732 17.54988373 71.31640625 18.48046875 C71.33718735 19.40845779 71.35796844 20.33644684 71.37937927 21.29255676 C71.44477323 24.2574624 71.50371262 27.22245672 71.5625 30.1875 C71.60569487 32.1972748 71.64930947 34.20704063 71.69335938 36.21679688 C71.80123429 41.14444167 71.90038332 46.07215361 72 51 C62.76 51 53.52 51 44 51 C43.34 52.98 42.68 54.96 42 57 C41.38419408 58.37704086 40.73809611 59.74116573 40.0546875 61.0859375 C39.70019531 61.78847656 39.34570312 62.49101563 38.98046875 63.21484375 C38.61566406 63.92769531 38.25085937 64.64054687 37.875 65.375 C37.50246094 66.11105469 37.12992188 66.84710937 36.74609375 67.60546875 C35.8343878 69.40550358 34.91770068 71.20301402 34 73 C33.01 73 32.02 73 31 73 C29.49780273 71.31933594 29.49780273 71.31933594 27.93359375 68.984375 C27.36576172 68.14519531 26.79792969 67.30601563 26.21289062 66.44140625 C25.62701172 65.55324219 25.04113281 64.66507813 24.4375 63.75 C23.84775391 62.87730469 23.25800781 62.00460937 22.65039062 61.10546875 C20.19996805 57.45353066 17.97129545 53.9425909 16 50 C7.09 50 -1.82 50 -11 50 C-11.8246886 39.82884061 -12.10027855 29.82825843 -11.8125 19.625 C-11.79453369 18.52551025 -11.77656738 17.42602051 -11.75805664 16.29321289 C-11.72059326 15.26059326 -11.68312988 14.22797363 -11.64453125 13.1640625 C-11.61721924 12.24061035 -11.58990723 11.3171582 -11.56176758 10.36572266 C-11 8 -11 8 -9.08862305 6.20458984 C-7 5 -7 5 -4.9375 4.5625 C-2.26590612 3.78687597 -1.47127025 2.28046889 0 0 Z " fill="#FDFDFD" transform="translate(1440,1082)"/>
<path d="M0 0 C1.35931641 0.06380859 1.35931641 0.06380859 2.74609375 0.12890625 C16.65260057 1.0560067 26.81662699 5.14656824 36.375 15.5 C41.60136951 21.70631379 45.31666998 28.02145274 46.4375 36.1875 C46 39 46 39 43.86206055 40.64379883 C40.6023467 42.18842993 38.36604361 42.42524494 34.76953125 42.51171875 C32.882948 42.56513428 32.882948 42.56513428 30.95825195 42.61962891 C29.57634682 42.64298482 28.19442875 42.66558593 26.8125 42.6875 C25.36871977 42.71992506 23.92495359 42.75298049 22.48120117 42.78662109 C10.26059283 43.04737764 -1.96447923 43.09964694 -14.1875 43.125 C-15.51761612 43.12915421 -15.51761612 43.12915421 -16.87460327 43.13339233 C-40.57546297 43.18752961 -40.57546297 43.18752961 -48 42 C-50 40 -50 40 -50.15234375 38.1875 C-49.04358598 26.89833002 -43.13549438 18.63525363 -35 11 C-32.10700215 8.79146536 -29.12611076 6.85808993 -26 5 C-25.01 4.34 -24.02 3.68 -23 3 C-15.30923758 0.4126756 -8.06554762 -0.47580928 0 0 Z " fill="#FCFCFC" transform="translate(1170,1074)"/>
</svg>
